<?xml version="1.0" ?><svg style="enable-background:new 0 0 100 100;" version="1.1" viewBox="0 0 100 100" xml:space="preserve" xmlns="http://www.w3.org/2000/svg" xmlns:xlink="http://www.w3.org/1999/xlink"><style type="text/css">
	.st0{fill:#FFFFFF;}
	.st1{fill:#0AB5FD;}
	.st2{fill:#97B0F9;}
	.st3{fill:#0056D3;}
	.st4{fill:#92EBFD;}
	.st5{fill:#FCC18A;}
	.st6{fill:#FC801C;}
</style><g id="Layer_1"/><g id="Layer_2"><g><g><g><path class="st0" d="M54.58,26.1c-1.36,5.85-6.93,14.47-15.09,22.63c-8.17,8.17-16.78,13.73-22.63,15.09      c-0.84-2.78-1.3-5.72-1.3-8.78c0-16.71,13.54-30.25,30.25-30.25C48.85,24.79,51.8,25.25,54.58,26.1z"/><path class="st1" d="M16.86,65.49c-0.76,0-1.4-0.47-1.61-1.19c-0.91-3.01-1.38-6.13-1.38-9.26c0-1.21,0.07-2.39,0.2-3.53      c0.08-0.91,0.91-1.58,1.85-1.48c0.92,0.1,1.58,0.92,1.48,1.85c-0.12,1.04-0.17,2.12-0.17,3.16c0,2.25,0.27,4.5,0.81,6.71      c5.68-1.92,13.43-7.34,20.27-14.2c6.86-6.84,12.28-14.6,14.2-20.27c-2.2-0.54-4.45-0.81-6.71-0.81      c-9.95,0-19.02,5.06-24.28,13.51c-0.47,0.76-1.55,1.03-2.32,0.54c-0.79-0.49-1.02-1.53-0.54-2.32      c2.81-4.52,6.76-8.3,11.39-10.94c7.48-4.25,16.67-5.29,25.01-2.77c0.86,0.25,1.36,1.13,1.16,1.98      c-1.55,6.45-7.34,15.21-15.55,23.44c-8.23,8.2-16.99,14-23.44,15.54C17.11,65.49,16.98,65.49,16.86,65.49z M17.2,46.84      c-0.19,0-0.37-0.03-0.54-0.1c-0.44-0.15-0.77-0.45-0.98-0.86c-0.18-0.4-0.22-0.86-0.07-1.28v-0.02c0.3-0.84,1.28-1.31,2.13-1.03      c0.42,0.15,0.77,0.45,0.96,0.86c0.2,0.4,0.24,0.86,0.08,1.28C18.56,46.39,17.92,46.84,17.2,46.84z"/></g><g><path class="st2" d="M67.19,33.65c3.94,3.94-2.45,16.71-14.26,28.52c-11.81,11.81-24.58,18.2-28.52,14.26      c5.47,5.47,13.04,8.86,21.39,8.86c16.71,0,30.25-13.54,30.25-30.25C76.05,46.69,72.66,39.13,67.19,33.65z"/><path class="st3" d="M45.8,86.97c-8.53,0-16.55-3.32-22.58-9.35c-0.33-0.33-0.49-0.76-0.49-1.19s0.16-0.86,0.49-1.19      c0.66-0.66,1.72-0.66,2.38,0c2.48,2.48,13.63-1.74,26.14-14.26C64.26,48.47,68.48,37.32,66,34.84      c-0.33-0.33-0.49-0.76-0.49-1.19s0.16-0.86,0.49-1.19c0.66-0.66,1.72-0.66,2.38,0c6.03,6.03,9.35,14.05,9.35,22.58      C77.73,72.65,63.4,86.97,45.8,86.97z M30.2,78.99c4.6,3.01,9.97,4.62,15.59,4.62c15.75,0,28.57-12.82,28.57-28.57      c0-5.62-1.61-11-4.62-15.59c-1.4,6.82-7.97,16.25-15.63,23.91S37.03,77.59,30.2,78.99z"/></g><g><path class="st4" d="M52.93,62.17c11.81-11.81,18.2-24.58,14.26-28.52c-3.47-3.47-7.79-6.1-12.61-7.56      c-1.36,5.85-6.93,14.47-15.09,22.63c-8.17,8.17-16.78,13.73-22.63,15.09c1.46,4.82,4.08,9.14,7.56,12.61      C28.35,80.37,41.12,73.98,52.93,62.17z"/><path class="st1" d="M27.71,79.27c-1.82,0-3.36-0.51-4.49-1.65c-3.7-3.7-6.46-8.31-7.98-13.31c-0.13-0.44-0.08-0.93,0.15-1.33      c0.23-0.4,0.62-0.69,1.07-0.8c5.77-1.34,14.13-6.96,21.82-14.64s13.3-16.05,14.64-21.82c0.11-0.45,0.39-0.84,0.8-1.07      c0.4-0.23,0.88-0.29,1.33-0.15c5.01,1.52,9.61,4.27,13.31,7.97c5.4,5.4-3.31,19.95-14.26,30.9      C45.47,72.01,34.57,79.27,27.71,79.27z M19.01,64.95c1.43,3.85,3.68,7.38,6.59,10.29c2.48,2.49,13.63-1.74,26.14-14.26      C64.26,48.47,68.48,37.32,66,34.84c-2.91-2.91-6.44-5.16-10.29-6.59c-2.06,6.18-7.66,14.29-15.04,21.67      C33.29,57.3,25.19,62.89,19.01,64.95z"/></g></g><g><path class="st3" d="M23.08,90.33L23.08,90.33c-1.39-0.02-2.44-0.17-3.41-0.77c-1.92-1.24-3.04-3.14-2.99-5.08     c0-0.54,0.07-1.09,0.22-1.66c0.24-0.87,1.18-1.43,2.05-1.18c0.91,0.24,1.43,1.16,1.19,2.05c-0.07,0.29-0.1,0.55-0.1,0.79     c0.03,0.69,0.17,1.34,1.5,2.27v0.02c0.08,0.03,0.62,0.24,1.55,0.2h0.1c5.75,0,22.59-5.58,35.51-18.49     c0.64-0.62,1.75-0.62,2.37,0.02c0.32,0.32,0.49,0.74,0.49,1.19c0,0.45-0.17,0.87-0.49,1.18C47.55,84.18,30.71,90.27,23.08,90.33z      M64.39,66.4c-0.39,0-0.76-0.13-1.06-0.39c-0.72-0.59-0.82-1.65-0.23-2.37c0.57-0.69,1.66-0.79,2.37-0.23     c0.34,0.29,0.55,0.69,0.61,1.14c0.03,0.44-0.1,0.87-0.39,1.23C65.36,66.17,64.89,66.4,64.39,66.4z M68.35,60.97     c-0.32,0-0.64-0.1-0.91-0.27c-0.39-0.25-0.64-0.62-0.74-1.06c-0.08-0.44,0-0.89,0.23-1.28c3.53-5.45,6.05-11.39,7.48-17.68     c0.84-3.39,1.24-5.75,1.43-7.13c0.2-1.46,0.2-2.05,0.2-2.05c0-0.92,0.76-1.68,1.68-1.68c0.92,0,1.68,0.76,1.68,1.68     c0,0.13-0.02,3.16-1.73,9.97c-1.5,6.64-4.17,12.94-7.92,18.72C69.44,60.69,68.92,60.97,68.35,60.97z"/></g><g><path class="st5" d="M81.09,24.79h-6.72v-5.33c0-3.04,1.21-5.96,3.36-8.11l0,0l0,0c2.15,2.15,3.36,5.07,3.36,8.11V24.79z"/><path class="st6" d="M81.09,26.47h-6.72c-0.93,0-1.68-0.75-1.68-1.68v-5.33c0-3.52,1.37-6.82,3.85-9.3     c0.66-0.66,1.72-0.66,2.38,0c2.48,2.48,3.85,5.79,3.85,9.3v5.33C82.77,25.72,82.02,26.47,81.09,26.47z M76.05,23.11h3.36v-3.65     c0-1.99-0.59-3.88-1.68-5.49c-1.09,1.61-1.68,3.51-1.68,5.49V23.11z"/></g><g><path class="st6" d="M71.01,29.83c-0.43,0-0.86-0.16-1.19-0.49c-0.66-0.66-0.66-1.72,0-2.38l3.36-3.36     c0.66-0.66,1.72-0.66,2.38,0c0.66,0.66,0.66,1.72,0,2.38l-3.36,3.36C71.87,29.67,71.44,29.83,71.01,29.83z"/></g><g><path class="st6" d="M84.45,29.83c-0.43,0-0.86-0.16-1.19-0.49l-3.36-3.36c-0.66-0.66-0.66-1.72,0-2.38     c0.66-0.66,1.72-0.66,2.38,0l3.36,3.36c0.66,0.66,0.66,1.72,0,2.38C85.31,29.67,84.88,29.83,84.45,29.83z"/></g></g></g></svg>